<svg xmlns="http://www.w3.org/2000/svg" viewBox="95.606 -38.817 308.787 227.634" preserveAspectRatio="xMidYMid"><defs><filter id="A"><feFlood flood-color="#fff" result="A"/><feMorphology radius="1" in="SourceAlpha"/><feComposite operator="in" in="A"/><feConvolveMatrix order="3,3" divisor="1" kernelMatrix="0 0 0 1 1 1 0 0 0"/><feOffset dx="-3"/><feComposite operator="in" in="A" result="F"/><feFlood flood-color="#9f9887"/><feComposite operator="in" in2="SourceAlpha"/><feMorphology operator="dilate" radius="1"/><feOffset dx="-4.5"/><feGaussianBlur stdDeviation="5.8"/><feComponentTransfer result="L"><feFuncA type="linear" slope="0.8" intercept="-0.2"/></feComponentTransfer><feMerge><feMergeNode in="L"/><feMergeNode in="F"/><feMergeNode in="SourceGraphic"/></feMerge></filter></defs><g filter="url(#A)"><g transform="translate(144.22 96.933)"><path d="M24.18 0H5.22Q4.08 0 3.57-.5q-.5-.5-.5-1.65v-7.02q0-1.14.5-1.65.5-.5 1.65-.5h16.14q.78 0 1.17-.5.4-.5.4-1.23 0-1.02-.4-1.5-.4-.48-1.17-.54l-9-1.26q-4.2-.6-6.75-2.76-2.55-2.16-2.55-7.2v-6.3q0-5.1 3.3-7.83 3.3-2.73 9.12-2.73h16.8q1.14 0 1.65.5.5.5.5 1.65v7.14q0 1.14-.5 1.65-.5.5-1.65.5H18.3q-.78 0-1.2.5-.42.5-.42 1.3 0 .78.42 1.32.42.54 1.2.6l8.94 1.2q4.2.6 6.78 2.76 2.58 2.16 2.58 7.2v6.3q0 5.1-3.33 7.83Q29.94 0 24.18 0zM58.8-30.6l-2.82 9.12h9.42l-2.82-9.12q-.24-.54-.5-.78-.27-.24-.63-.24h-1.5q-.36 0-.63.24-.27.24-.5.78zm-3.42 20.04v8.4q0 1.14-.5 1.65-.5.5-1.65.5H44.4q-1.14 0-1.65-.5-.5-.5-.5-1.65V-18q0-1.8.57-4.14.57-2.34 1.77-5.46l5.22-13.62q.36-1.02 1.1-1.5.75-.48 1.95-.48H69q1.14 0 1.9.48.75.48 1.1 1.5l5.22 13.62q1.2 3.12 1.77 5.46.57 2.34.57 4.14v15.84q0 1.14-.5 1.65-.5.5-1.65.5h-9.06q-1.2 0-1.77-.5-.57-.5-.57-1.65v-8.4H55.38zM112.14 0H89.1q-1.14 0-1.65-.5-.5-.5-.5-1.65v-38.88q0-1.14.5-1.65.5-.5 1.65-.5h19.14q5.88 0 8.7 2.25 2.82 2.25 2.82 6.93v2.88q0 2.52-.87 4.1-.87 1.6-2.67 2.37 3.84.36 5.7 2.64 1.86 2.28 1.86 6.66v5.52q0 5.04-2.85 7.44-2.85 2.4-8.8 2.4zm-6.6-33h-5.1v6.48h5.1q1.14 0 1.7-.6.57-.6.57-1.8v-1.68q0-1.2-.57-1.8-.57-.6-1.7-.6zm2.7 15.72h-7.8v7.08h7.8q1.14 0 1.7-.6.57-.6.57-1.8v-2.34q0-1.2-.57-1.77-.57-.57-1.7-.57zm58.98-23.76v29.7q0 2.76-.8 5-.8 2.25-2.88 3.84-2.07 1.6-5.67 2.5-3.6.9-9.18.9-5.58 0-9.18-.9-3.6-.9-5.67-2.5-2.07-1.6-2.88-3.84-.8-2.25-.8-5v-29.7q0-1.14.5-1.65.5-.5 1.65-.5h9.42q1.14 0 1.65.5.5.5.5 1.65v27.36q0 1.2.9 2 .9.8 4.02.8 3.18 0 4.08-.8.9-.8.9-2v-27.36q0-1.14.5-1.65.5-.5 1.65-.5h9.12q1.14 0 1.65.5.5.5.5 1.65zm41.28 0v29.7q0 2.76-.78 5-.78 2.25-2.73 3.84-1.95 1.6-5.37 2.5-3.42.9-8.7.9-5.22 0-8.6-.9-3.4-.9-5.34-2.5-1.95-1.6-2.7-3.84-.75-2.25-.75-5v-9.72q0-1.14.5-1.65.5-.5 1.65-.5h8.7q1.14 0 1.65.5.5.5.5 1.65v7.32q0 1.2.75 2 .75.8 3.5.8 2.58 0 3.27-.8.7-.8.7-2v-27.3q0-1.14.5-1.65.5-.5 1.65-.5h9.42q1.14 0 1.65.5.5.5.5 1.65z" fill="red"/></g></g></svg>